<?xml version="1.0" standalone="no"?><svg xmlns="http://www.w3.org/2000/svg" viewBox="0 0 1440 320"><path fill="#ff9520" fill-opacity="1" d="M0,256L26.7,229.3C53.3,203,107,149,160,160C213.3,171,267,245,320,234.7C373.3,224,427,128,480,90.7C533.3,53,587,75,640,90.7C693.3,107,747,117,800,154.7C853.3,192,907,256,960,240C1013.3,224,1067,128,1120,80C1173.3,32,1227,32,1280,37.3C1333.3,43,1387,53,1413,58.7L1440,64L1440,320L1413.3,320C1386.7,320,1333,320,1280,320C1226.7,320,1173,320,1120,320C1066.7,320,1013,320,960,320C906.7,320,853,320,800,320C746.7,320,693,320,640,320C586.7,320,533,320,480,320C426.7,320,373,320,320,320C266.7,320,213,320,160,320C106.7,320,53,320,27,320L0,320Z"></path></svg>