<?xml version="1.0" standalone="no"?><svg xmlns="http://www.w3.org/2000/svg" viewBox="0 0 1440 320"><path fill="#ff9520" fill-opacity="1" d="M0,32L34.3,58.7C68.6,85,137,139,206,149.3C274.3,160,343,128,411,133.3C480,139,549,181,617,202.7C685.7,224,754,224,823,208C891.4,192,960,160,1029,154.7C1097.1,149,1166,171,1234,149.3C1302.9,128,1371,64,1406,32L1440,0L1440,320L1405.7,320C1371.4,320,1303,320,1234,320C1165.7,320,1097,320,1029,320C960,320,891,320,823,320C754.3,320,686,320,617,320C548.6,320,480,320,411,320C342.9,320,274,320,206,320C137.1,320,69,320,34,320L0,320Z"></path></svg>